#N canvas 0 0 1366 686 10;
#X obj 27 -40 cnv 15 1300 500 empty empty empty 20 12 0 14 -192285
-66577 0;
#N canvas 0 0 450 300 (subpatch) 0;
#X array amen 256582 float 2;
#X coords 0 1.1 256582 -1.1 1000 230 1 0 0;
#X restore 192 22 graph;
#X obj 195 22 hsl 995 140 0 1 0 0 empty position_slider empty -2 -8
0 10 -261682 -258113 -1 14135 1;
#X obj 195 142 hsl 995 110 0 3200 0 0 empty continuous_time empty -2
-8 0 10 -232576 -4160 -1 48861 1;
#X obj 191 320 bng 80 250 50 0 get_new_break empty empty 55 20 0 10
-258113 -1 -1;
#X obj 167 72 bng 25 250 50 0 open_amen_file empty empty 55 20 0 10
-191407 -204800 -1;
#X text 101 96 OPEN AMEN FILE;
#X text 191 401 GET NEW BREAK;
#X obj 142 22 tgl 50 0 start_sequencer empty empty 17 7 0 10 -1 -262144
-1 1 1;
#X text 86 41 ON / OFF;
#X obj 696 270 hsl 495 36 15 31 0 0 repeat_position empty empty -2
-8 0 10 -204786 -1 -1 20600 1;
#X floatatom 192 253 3 0 31 0 - num0 new0;
#X floatatom 221 253 3 0 0 0 - num1 new1;
#X floatatom 253 253 3 0 0 0 - num2 new2;
#X floatatom 286 253 3 0 0 0 - num3 new3;
#X floatatom 318 253 3 0 0 0 - num4 new4;
#X floatatom 348 253 3 0 0 0 - num5 new5;
#X floatatom 379 253 3 0 30 0 - num6 new6;
#X floatatom 410 253 3 0 0 0 - num7 new7;
#X floatatom 442 253 3 0 0 0 - num8 new8;
#X floatatom 473 253 3 0 0 0 - num9 new9;
#X floatatom 504 253 3 0 0 0 - num10 new10;
#X floatatom 537 253 3 0 0 0 - num11 new11;
#X floatatom 569 253 3 0 0 0 - num12 new12;
#X floatatom 599 253 3 0 0 0 - num13 new13;
#X floatatom 630 253 3 0 0 0 - num14 new14;
#X floatatom 662 253 3 0 30 0 - num15 new15;
#X floatatom 692 253 3 0 0 0 - num16 new16;
#X floatatom 724 253 3 0 0 0 - num17 new17;
#X floatatom 754 253 3 0 0 0 - num18 new18;
#X floatatom 785 253 3 0 0 0 - num19 new19;
#X floatatom 817 253 3 0 0 0 - num20 new20;
#X floatatom 848 253 3 0 0 0 - num21 new21;
#X floatatom 879 253 3 0 0 0 - num22 new22;
#X floatatom 908 253 3 0 0 0 - num23 new23;
#X floatatom 940 253 3 0 0 0 - num24 new24;
#X floatatom 971 253 3 0 0 0 - num25 new25;
#X floatatom 1003 253 3 0 0 0 - num26 new26;
#X floatatom 1035 253 3 0 0 0 - num27 new27;
#X floatatom 1067 253 3 0 0 0 - num28 new28;
#X floatatom 1099 253 3 0 0 0 - num29 new29;
#X floatatom 1131 253 3 0 0 0 - num30 new30;
#X obj 961 329 cnv 15 250 120 empty empty empty 20 12 0 14 -260097
-66577 0;
#X text 1018 360 LPF;
#X text 1162 360 HPF;
#X obj 1155 406 knob 32 32 20 5000 0 0 highpass_filter empty empty
0 -8 0 8 -4032 -4032 -1 0 1;
#X obj 980 406 knob 32 32 20 10000 0 0 lowpass_filter empty empty 0
-8 0 8 -258113 -258113 -261234 0 1;
#X floatatom 1160 253 3 0 0 0 - num31 new31;
#N canvas 558 121 449 300 entrails 0;
#X obj 119 53 Projecte;
#X obj 119 77 read_midi_files;
#X restore 1257 461 pd entrails;
#X text 745 360 REVERSE PROBABILITY;
#X obj 1192 24 vsl 30 279 0 120 0 0 volumen volumeninit empty 0 -9
0 10 -191407 -1 -1 24000 1;
#X obj 1223 24 vu 30 280 db_out empty -1 -8 0 10 -191407 -1 1 0;
#X obj 701 387 hsl 200 40 1 0 0 0 vslider_reverse empty empty -2 -8
0 10 -159808 -1 -1 2000 1;
#X text 1058 331 FILTERS;
#X obj 1046 406 knob 32 32 1 4 0 0 Q empty empty 0 -8 0 8 -191407 -99865
-1 0 1;
#X text 1151 382 Cutoff;
#X text 975 381 Cutoff;
#X text 1032 380 Resonance;
#X obj 1110 359 cnv 15 16 90 empty empty empty 20 12 0 14 -86853 -66577
0;
#X text 1203 1 Master;
#X text 896 281 REPEAT ZONE;
#X coords 0 0 1 1 85 60 0;
