#N canvas 0 5 1366 686 10;
#X obj 379 223 i;
#X floatatom 379 258 5 0 0 0 - - -;
#X floatatom 379 337 5 0 0 0 - - -;
#X obj 423 224 + 1;
#X obj 351 -32 inlet;
#X obj 721 539 outlet;
#X obj 379 167 metro;
#X obj 426 54 r sampleSize;
#X obj 426 82 / 44100;
#X obj 426 137 * 1000;
#X msg 307 150 stop;
#X floatatom 503 154 5 0 0 0 - - -;
#X obj 242 451 bng 15 250 50 0 empty empty empty 17 7 0 10 -262144
-1 -1;
#X obj 269 451 bng 15 250 50 0 empty empty empty 17 7 0 10 -262144
-1 -1;
#X obj 296 451 bng 15 250 50 0 empty empty empty 17 7 0 10 -262144
-1 -1;
#X obj 323 451 bng 15 250 50 0 empty empty empty 17 7 0 10 -262144
-1 -1;
#X obj 351 451 bng 15 250 50 0 empty empty empty 17 7 0 10 -262144
-1 -1;
#X obj 378 451 bng 15 250 50 0 empty empty empty 17 7 0 10 -262144
-1 -1;
#X obj 405 451 bng 15 250 50 0 empty empty empty 17 7 0 10 -262144
-1 -1;
#X obj 433 451 bng 15 250 50 0 empty empty empty 17 7 0 10 -262144
-1 -1;
#X obj 460 451 bng 15 250 50 0 empty empty empty 17 7 0 10 -262144
-1 -1;
#X obj 487 451 bng 15 250 50 0 empty empty empty 17 7 0 10 -262144
-1 -1;
#X obj 515 451 bng 15 250 50 0 empty empty empty 17 7 0 10 -262144
-1 -1;
#X obj 542 451 bng 15 250 50 0 empty empty empty 17 7 0 10 -262144
-1 -1;
#X obj 569 451 bng 15 250 50 0 empty empty empty 17 7 0 10 -262144
-1 -1;
#X obj 597 451 bng 15 250 50 0 empty empty empty 17 7 0 10 -262144
-1 -1;
#X obj 624 451 bng 15 250 50 0 empty empty empty 17 7 0 10 -262144
-1 -1;
#X obj 651 451 bng 15 250 50 0 empty empty empty 17 7 0 10 -262144
-1 -1;
#X floatatom 607 347 5 0 15 0 - - -;
#X floatatom 639 347 5 0 24 0 - - -;
#X floatatom 670 347 5 0 24 0 - - -;
#X floatatom 703 347 5 0 24 0 - - -;
#X floatatom 735 347 5 0 24 0 - - -;
#X floatatom 767 347 5 0 24 0 - - -;
#X floatatom 799 347 5 0 24 0 - - -;
#X floatatom 831 347 5 0 24 0 - - -;
#X floatatom 863 347 5 0 24 0 - - -;
#X floatatom 895 347 5 0 24 0 - - -;
#X floatatom 927 347 5 0 24 0 - - -;
#X floatatom 959 347 5 0 24 0 - - -;
#X floatatom 991 347 5 0 24 0 - - -;
#X floatatom 1023 347 5 0 24 0 - - -;
#X floatatom 1055 347 5 0 24 0 - - -;
#X floatatom 1087 347 5 0 24 0 - - -;
#X obj 114 498 f;
#X obj 148 498 f;
#X obj 182 498 f;
#X obj 216 498 f;
#X obj 250 498 f;
#X obj 284 498 f;
#X obj 318 498 f;
#X obj 352 498 f;
#X obj 386 498 f;
#X obj 420 498 f;
#X obj 454 498 f;
#X obj 488 498 f;
#X obj 522 498 f;
#X obj 556 498 f;
#X obj 590 498 f;
#X obj 624 498 f;
#X obj 174 184 bng 15 250 50 0 empty empty empty 17 7 0 10 -262144
-1 -1;
#X obj 174 208 s metro_project;
#X obj 645 44 metro;
#X obj 645 71 i;
#X obj 688 71 + 1;
#X floatatom 738 -19 10 0 0 0 - - -;
#X floatatom 738 30 5 0 0 0 - - -;
#X obj 738 52 s continuous_time;
#X obj 379 27 t b b;
#X obj 672 -18 / 100;
#X text 736 77 Aqui enviamos la posicion de la barra del secuenciador
;
#X obj 307 116 bng 15 250 50 0 empty stop empty 17 7 0 10 -262144 -1
-1;
#X obj 379 392 select 0 1 2 3 4 5 6 7 8 9 10 11 12 13 14 15 16 17 18
19 20 21 22 23 24 25 26 27 28 29 30 31;
#X obj 683 451 bng 15 250 50 0 empty empty empty 17 7 0 10 -262144
-1 -1;
#X obj 710 451 bng 15 250 50 0 empty empty empty 17 7 0 10 -262144
-1 -1;
#X obj 737 451 bng 15 250 50 0 empty empty empty 17 7 0 10 -262144
-1 -1;
#X obj 764 451 bng 15 250 50 0 empty empty empty 17 7 0 10 -262144
-1 -1;
#X obj 792 451 bng 15 250 50 0 empty empty empty 17 7 0 10 -262144
-1 -1;
#X obj 819 451 bng 15 250 50 0 empty empty empty 17 7 0 10 -262144
-1 -1;
#X obj 846 451 bng 15 250 50 0 empty empty empty 17 7 0 10 -262144
-1 -1;
#X obj 874 451 bng 15 250 50 0 empty empty empty 17 7 0 10 -262144
-1 -1;
#X obj 901 451 bng 15 250 50 0 empty empty empty 17 7 0 10 -262144
-1 -1;
#X obj 928 451 bng 15 250 50 0 empty empty empty 17 7 0 10 -262144
-1 -1;
#X obj 956 451 bng 15 250 50 0 empty empty empty 17 7 0 10 -262144
-1 -1;
#X obj 983 451 bng 15 250 50 0 empty empty empty 17 7 0 10 -262144
-1 -1;
#X obj 1010 451 bng 15 250 50 0 empty empty empty 17 7 0 10 -262144
-1 -1;
#X obj 1038 451 bng 15 250 50 0 empty empty empty 17 7 0 10 -262144
-1 -1;
#X obj 1065 451 bng 15 250 50 0 empty empty empty 17 7 0 10 -262144
-1 -1;
#X obj 1092 451 bng 15 250 50 0 empty empty empty 17 7 0 10 -262144
-1 -1;
#X obj 659 498 f;
#X obj 693 498 f;
#X obj 727 498 f;
#X obj 761 498 f;
#X obj 795 498 f;
#X obj 829 498 f;
#X obj 863 498 f;
#X obj 897 498 f;
#X obj 931 498 f;
#X obj 965 498 f;
#X obj 999 498 f;
#X obj 1033 498 f;
#X obj 1067 498 f;
#X obj 1101 498 f;
#X obj 1135 498 f;
#X obj 1169 498 f;
#X floatatom 607 372 5 0 15 0 - - -;
#X floatatom 639 372 5 0 24 0 - - -;
#X floatatom 670 372 5 0 24 0 - - -;
#X floatatom 703 372 5 0 24 0 - - -;
#X floatatom 735 372 5 0 24 0 - - -;
#X floatatom 767 372 5 0 24 0 - - -;
#X floatatom 799 372 5 0 24 0 - - -;
#X floatatom 831 372 5 0 24 0 - - -;
#X floatatom 863 372 5 0 24 0 - - -;
#X floatatom 895 372 5 0 24 0 - - -;
#X floatatom 927 372 5 0 24 0 - - -;
#X floatatom 959 372 5 0 24 0 - - -;
#X floatatom 991 372 5 0 24 0 - - -;
#X floatatom 1023 372 5 0 24 0 - - -;
#X floatatom 1055 372 5 0 24 0 - - -;
#X floatatom 1087 372 5 0 24 0 - - -;
#N canvas 68 18 1146 585 getProb 0;
#X obj -4776 -3708 until;
#X msg -4776 -3734 32;
#X floatatom -4686 -3455 5 0 0 1 length - -;
#X obj -4776 -3472 list-wrandom;
#X obj -4742 -3506 tabdump;
#X obj -4776 -3683 i;
#X obj -4732 -3682 + 1;
#X obj -4776 -3656 mod 32;
#X msg -4742 -3544 set prob\$1;
#X obj -4776 -3629 + 1;
#X obj -4776 -3601 t b b f f;
#X msg -4511 -3358 symbol num\$1;
#X obj -4526 -3321 s;
#X obj -4699 -3584 - 1;
#X obj -4776 -3754 bng 15 250 50 0 empty get_new_break empty 17 7 0
10 -262144 -1 -1;
#X obj -3845 -3466 hsl 128 15 15 31 0 0 empty repeat_position empty
-2 -8 0 10 -262144 -1 -1 2622 1;
#X obj -4088 -3395 select 1;
#X obj -4088 -3451 <=;
#X obj -4088 -3550 select 16 17 18 19 20 21 22 23 24 25 26 27 28 29
30 31;
#X msg -4088 -3516 16;
#X msg -4068 -3516 17;
#X msg -4048 -3516 18;
#X msg -4028 -3516 19;
#X msg -4008 -3516 20;
#X msg -3988 -3516 21;
#X msg -3968 -3516 22;
#X msg -3948 -3516 23;
#X msg -3928 -3516 24;
#X msg -3908 -3516 25;
#X msg -3888 -3516 26;
#X msg -3868 -3516 27;
#X msg -3848 -3516 28;
#X msg -3828 -3516 29;
#X msg -3808 -3516 30;
#X msg -3788 -3516 31;
#N canvas 0 0 450 300 (subpatch) 0;
#X array 32index 32 float 3;
#A 0 0 1 2 2 3 1 6 7 6 4 15 3 5 4 30 4 29 4 3 1 3 5 10 30 0 1 5 2 5
15 10 4;
#X coords 0 32 32 0 200 140 1 0 0;
#X restore -3857 -3369 graph;
#X obj -4088 -3338 tabread 32index;
#X obj -4588 -3415 tabwrite 32index;
#X obj -4776 -3378 once;
#X obj -4293 -3533 bng 15 250 50 0 empty empty empty 17 7 0 10 -262144
-1 -1;
#X obj -4088 -3367 once;
#X obj -4542 -3567 t f f f f f;
#X obj -4196 -3409 - 16;
#X connect 0 0 5 0;
#X connect 1 0 0 0;
#X connect 3 0 37 0;
#X connect 3 0 38 0;
#X connect 3 1 2 0;
#X connect 4 0 3 1;
#X connect 5 0 6 0;
#X connect 5 0 7 0;
#X connect 6 0 5 1;
#X connect 7 0 9 0;
#X connect 8 0 4 0;
#X connect 9 0 10 0;
#X connect 10 0 3 0;
#X connect 10 1 4 0;
#X connect 10 2 8 0;
#X connect 10 3 13 0;
#X connect 11 0 12 1;
#X connect 13 0 41 0;
#X connect 14 0 1 0;
#X connect 15 0 17 1;
#X connect 16 0 40 1;
#X connect 16 1 38 1;
#X connect 17 0 16 0;
#X connect 18 0 19 0;
#X connect 18 1 20 0;
#X connect 18 2 21 0;
#X connect 18 3 22 0;
#X connect 18 4 23 0;
#X connect 18 5 24 0;
#X connect 18 6 25 0;
#X connect 18 7 26 0;
#X connect 18 8 27 0;
#X connect 18 9 28 0;
#X connect 18 10 29 0;
#X connect 18 11 30 0;
#X connect 18 12 31 0;
#X connect 18 13 32 0;
#X connect 18 14 33 0;
#X connect 18 15 34 0;
#X connect 18 16 39 0;
#X connect 19 0 17 0;
#X connect 20 0 17 0;
#X connect 21 0 17 0;
#X connect 22 0 17 0;
#X connect 23 0 17 0;
#X connect 24 0 17 0;
#X connect 25 0 17 0;
#X connect 26 0 17 0;
#X connect 27 0 17 0;
#X connect 28 0 17 0;
#X connect 29 0 17 0;
#X connect 30 0 17 0;
#X connect 31 0 17 0;
#X connect 32 0 17 0;
#X connect 33 0 17 0;
#X connect 34 0 17 0;
#X connect 36 0 12 0;
#X connect 38 0 12 0;
#X connect 39 0 38 1;
#X connect 40 0 36 0;
#X connect 41 0 42 0;
#X connect 41 1 18 0;
#X connect 41 2 11 0;
#X connect 41 3 37 1;
#X connect 42 0 40 0;
#X restore 1164 17 pd getProb;
#X obj 607 273 r num0;
#X obj 639 310 r num1;
#X obj 671 272 r num2;
#X obj 703 309 r num3;
#X obj 734 268 r num4;
#X obj 766 305 r num5;
#X obj 798 267 r num6;
#X obj 830 304 r num7;
#X obj 863 267 r num8;
#X obj 895 304 r num9;
#X obj 927 266 r num10;
#X obj 960 303 r num11;
#X obj 991 262 r num12;
#X obj 1023 299 r num13;
#X obj 1055 261 r num14;
#X obj 1087 298 r num15;
#X obj 889 285 r num24;
#X obj 917 320 r num25;
#X obj 954 284 r num26;
#X obj 982 319 r num27;
#X obj 1017 280 r num28;
#X obj 1045 315 r num29;
#X obj 1081 279 r num30;
#X obj 1109 314 r num31;
#X obj 379 296 % 32;
#X obj 426 109 / 32;
#X obj 738 7 % 3200;
#X msg 645 10 stop;
#X obj 351 -7 select 0 1;
#X msg 351 206 0;
#X msg 610 55 0;
#X obj 633 291 r num16;
#X obj 661 326 r num17;
#X obj 697 290 r num18;
#X obj 725 325 r num19;
#X obj 760 286 r num20;
#X obj 788 321 r num21;
#X obj 824 285 r num22;
#X obj 852 320 r num23;
#X obj 252 353 s index_position;
#X obj 609 176 r new0;
#X obj 635 194 r new16;
#X obj 646 214 r new1;
#X obj 663 229 r new17;
#X obj 673 175 r new2;
#X obj 699 193 r new18;
#X obj 705 212 r new3;
#X obj 727 228 r new19;
#X obj 736 171 r new4;
#X obj 768 190 r new20;
#X obj 770 209 r new5;
#X obj 790 224 r new21;
#X obj 800 170 r new6;
#X obj 826 188 r new22;
#X obj 832 207 r new7;
#X obj 854 223 r new23;
#X obj 865 170 r new8;
#X obj 891 188 r new24;
#X obj 897 207 r new9;
#X obj 919 223 r new25;
#X obj 929 169 r new10;
#X obj 956 187 r new26;
#X obj 962 206 r new11;
#X obj 984 222 r new27;
#X obj 993 165 r new12;
#X obj 1019 183 r new28;
#X obj 1025 202 r new13;
#X obj 1047 218 r new29;
#X obj 1057 164 r new14;
#X obj 1083 182 r new30;
#X obj 1085 201 r new15;
#X obj 1111 217 r new31;
#X connect 0 0 1 0;
#X connect 0 0 3 0;
#X connect 1 0 146 0;
#X connect 2 0 72 0;
#X connect 2 0 161 0;
#X connect 3 0 0 1;
#X connect 4 0 150 0;
#X connect 6 0 0 0;
#X connect 6 0 60 0;
#X connect 7 0 8 0;
#X connect 8 0 147 0;
#X connect 9 0 6 1;
#X connect 9 0 11 0;
#X connect 9 0 69 0;
#X connect 10 0 6 0;
#X connect 12 0 44 0;
#X connect 13 0 45 0;
#X connect 14 0 46 0;
#X connect 15 0 47 0;
#X connect 16 0 48 0;
#X connect 17 0 49 0;
#X connect 18 0 50 0;
#X connect 19 0 51 0;
#X connect 20 0 52 0;
#X connect 21 0 53 0;
#X connect 22 0 54 0;
#X connect 23 0 55 0;
#X connect 24 0 56 0;
#X connect 25 0 57 0;
#X connect 26 0 58 0;
#X connect 27 0 59 0;
#X connect 28 0 44 1;
#X connect 29 0 45 1;
#X connect 30 0 46 1;
#X connect 31 0 47 1;
#X connect 32 0 48 1;
#X connect 33 0 49 1;
#X connect 34 0 50 1;
#X connect 35 0 51 1;
#X connect 36 0 52 1;
#X connect 37 0 53 1;
#X connect 38 0 54 1;
#X connect 39 0 55 1;
#X connect 40 0 56 1;
#X connect 41 0 57 1;
#X connect 42 0 58 1;
#X connect 43 0 59 1;
#X connect 44 0 5 0;
#X connect 45 0 5 0;
#X connect 46 0 5 0;
#X connect 47 0 5 0;
#X connect 48 0 5 0;
#X connect 49 0 5 0;
#X connect 50 0 5 0;
#X connect 51 0 5 0;
#X connect 52 0 5 0;
#X connect 53 0 5 0;
#X connect 54 0 5 0;
#X connect 55 0 5 0;
#X connect 56 0 5 0;
#X connect 57 0 5 0;
#X connect 58 0 5 0;
#X connect 59 0 5 0;
#X connect 60 0 61 0;
#X connect 62 0 63 0;
#X connect 63 0 64 0;
#X connect 63 0 65 0;
#X connect 64 0 63 1;
#X connect 65 0 148 0;
#X connect 66 0 67 0;
#X connect 68 0 6 0;
#X connect 68 1 62 0;
#X connect 69 0 62 1;
#X connect 71 0 10 0;
#X connect 72 0 12 0;
#X connect 72 1 13 0;
#X connect 72 2 14 0;
#X connect 72 3 15 0;
#X connect 72 4 16 0;
#X connect 72 5 17 0;
#X connect 72 6 18 0;
#X connect 72 7 19 0;
#X connect 72 8 20 0;
#X connect 72 9 21 0;
#X connect 72 10 22 0;
#X connect 72 11 23 0;
#X connect 72 12 24 0;
#X connect 72 13 25 0;
#X connect 72 14 26 0;
#X connect 72 15 27 0;
#X connect 72 16 73 0;
#X connect 72 17 74 0;
#X connect 72 18 75 0;
#X connect 72 19 76 0;
#X connect 72 20 77 0;
#X connect 72 21 78 0;
#X connect 72 22 79 0;
#X connect 72 23 80 0;
#X connect 72 24 81 0;
#X connect 72 25 82 0;
#X connect 72 26 83 0;
#X connect 72 27 84 0;
#X connect 72 28 85 0;
#X connect 72 29 86 0;
#X connect 72 30 87 0;
#X connect 72 31 88 0;
#X connect 73 0 89 0;
#X connect 74 0 90 0;
#X connect 75 0 91 0;
#X connect 76 0 92 0;
#X connect 77 0 93 0;
#X connect 78 0 94 0;
#X connect 79 0 95 0;
#X connect 80 0 96 0;
#X connect 81 0 97 0;
#X connect 82 0 98 0;
#X connect 83 0 99 0;
#X connect 84 0 100 0;
#X connect 85 0 101 0;
#X connect 86 0 102 0;
#X connect 87 0 103 0;
#X connect 88 0 104 0;
#X connect 89 0 5 0;
#X connect 90 0 5 0;
#X connect 91 0 5 0;
#X connect 92 0 5 0;
#X connect 93 0 5 0;
#X connect 94 0 5 0;
#X connect 95 0 5 0;
#X connect 96 0 5 0;
#X connect 97 0 5 0;
#X connect 98 0 5 0;
#X connect 99 0 5 0;
#X connect 100 0 5 0;
#X connect 101 0 5 0;
#X connect 102 0 5 0;
#X connect 103 0 5 0;
#X connect 104 0 5 0;
#X connect 105 0 89 1;
#X connect 106 0 90 1;
#X connect 107 0 91 1;
#X connect 108 0 92 1;
#X connect 109 0 93 1;
#X connect 110 0 94 1;
#X connect 111 0 95 1;
#X connect 112 0 96 1;
#X connect 113 0 97 1;
#X connect 114 0 98 1;
#X connect 115 0 99 1;
#X connect 116 0 100 1;
#X connect 117 0 101 1;
#X connect 118 0 102 1;
#X connect 119 0 103 1;
#X connect 120 0 104 1;
#X connect 122 0 28 0;
#X connect 123 0 29 0;
#X connect 124 0 30 0;
#X connect 125 0 31 0;
#X connect 126 0 32 0;
#X connect 127 0 33 0;
#X connect 128 0 34 0;
#X connect 129 0 35 0;
#X connect 130 0 36 0;
#X connect 131 0 37 0;
#X connect 132 0 38 0;
#X connect 133 0 39 0;
#X connect 134 0 40 0;
#X connect 135 0 41 0;
#X connect 136 0 42 0;
#X connect 137 0 43 0;
#X connect 138 0 113 0;
#X connect 139 0 114 0;
#X connect 140 0 115 0;
#X connect 141 0 116 0;
#X connect 142 0 117 0;
#X connect 143 0 118 0;
#X connect 144 0 119 0;
#X connect 145 0 120 0;
#X connect 146 0 2 0;
#X connect 147 0 9 0;
#X connect 148 0 66 0;
#X connect 149 0 62 0;
#X connect 150 0 71 0;
#X connect 150 0 149 0;
#X connect 150 0 151 0;
#X connect 150 0 152 0;
#X connect 150 1 68 0;
#X connect 151 0 0 1;
#X connect 152 0 63 1;
#X connect 153 0 105 0;
#X connect 154 0 106 0;
#X connect 155 0 107 0;
#X connect 156 0 108 0;
#X connect 157 0 109 0;
#X connect 158 0 110 0;
#X connect 159 0 111 0;
#X connect 160 0 112 0;
#X connect 162 0 28 0;
#X connect 163 0 105 0;
#X connect 164 0 29 0;
#X connect 165 0 106 0;
#X connect 166 0 30 0;
#X connect 167 0 107 0;
#X connect 168 0 31 0;
#X connect 169 0 108 0;
#X connect 170 0 32 0;
#X connect 171 0 109 0;
#X connect 172 0 33 0;
#X connect 173 0 110 0;
#X connect 174 0 34 0;
#X connect 175 0 111 0;
#X connect 176 0 35 0;
#X connect 177 0 112 0;
#X connect 178 0 36 0;
#X connect 179 0 113 0;
#X connect 180 0 37 0;
#X connect 181 0 114 0;
#X connect 182 0 38 0;
#X connect 183 0 115 0;
#X connect 184 0 39 0;
#X connect 185 0 116 0;
#X connect 186 0 40 0;
#X connect 187 0 117 0;
#X connect 188 0 41 0;
#X connect 189 0 118 0;
#X connect 190 0 42 0;
#X connect 191 0 119 0;
#X connect 192 0 43 0;
#X connect 193 0 120 0;
