#N canvas 465 133 341 410 10;
#X obj 53 -1943 outlet;
#X obj 81 -1922 outlet;
#X floatatom 53 -2056 5 0 0 0 - - -;
#X obj 122 -2104 t a a;
#X obj 53 -2080 list-wrandom;
#X obj 176 -2184 - 1;
#X obj 176 -2143 abs;
#X obj 122 -2201 t f f;
#X obj 122 -2126 pack;
#X obj 53 -2227 r metro_project;
#X obj 122 -2254 vsl 15 20 1 0 0 0 empty vslider_reverse empty 0 -9
0 10 -262144 -1 -1 0 1;
#X obj 53 -2025 select 0 1;
#X msg 53 -1966 0.17187;
#X msg 81 -1966 -0.17187;
#X connect 2 0 11 0;
#X connect 3 0 4 1;
#X connect 4 0 2 0;
#X connect 5 0 6 0;
#X connect 6 0 8 1;
#X connect 7 0 8 0;
#X connect 7 1 5 0;
#X connect 8 0 3 0;
#X connect 9 0 4 0;
#X connect 10 0 7 0;
#X connect 11 0 12 0;
#X connect 11 1 13 0;
#X connect 12 0 0 0;
#X connect 13 0 1 0;
