#N canvas 537 21 479 483 10;
#X msg -13 167 bang;
#X obj 180 263 + 1;
#X obj -13 191 t b b;
#X obj 152 264 f 1;
#X msg 167 212 1;
#X obj 132 241 bang;
#X obj -32 347 list append;
#X obj 41 347 t l;
#X obj -53 380 list;
#X obj 3 382 list split 1;
#X text 26 167 bang to get current directory;
#X obj 3 413 outlet;
#X obj -65 24 inlet;
#X obj 152 295 outlet;
#X text -57 455 angel.faraldo@upf.edu \, 2015;
#X obj 72 425 print listdir;
#X obj 213 338 print listdir;
#X msg 213 316 \$1 midi files in folder;
#X obj 213 295 f;
#X obj 210 205 del 1;
#X msg -57 45 bang;
#X obj -44 140 once;
#X obj -65 116 t b b;
#X msg -48 67 refresh;
#X obj -65 93 route bang refresh;
#X msg 72 403 NO MORE FILES! Send "refresh" message to init list.;
#X text 4 67 "refresh" to get list of files and init;
#X text -67 -1 argument 1: folder to look for midi files.;
#X text -14 43 "bang" to retrieve filenames individually;
#X obj -13 215 folder_list \$1;
#X connect 0 0 2 0;
#X connect 0 0 19 0;
#X connect 1 0 3 1;
#X connect 2 0 29 0;
#X connect 2 1 4 0;
#X connect 2 1 6 1;
#X connect 3 0 1 0;
#X connect 3 0 13 0;
#X connect 3 0 18 1;
#X connect 4 0 3 1;
#X connect 5 0 3 0;
#X connect 6 0 7 0;
#X connect 6 0 8 1;
#X connect 7 0 6 1;
#X connect 8 0 9 0;
#X connect 9 0 11 0;
#X connect 9 1 8 1;
#X connect 9 2 25 0;
#X connect 12 0 24 0;
#X connect 17 0 16 0;
#X connect 18 0 17 0;
#X connect 19 0 18 0;
#X connect 20 0 24 0;
#X connect 21 0 0 0;
#X connect 22 0 8 0;
#X connect 22 1 21 0;
#X connect 23 0 24 0;
#X connect 24 0 22 0;
#X connect 24 1 0 0;
#X connect 25 0 15 0;
#X connect 29 0 5 0;
#X connect 29 0 6 0;
