#N canvas -8 -8 1366 686 10;
#X obj -457 -1854 soundfiler;
#X obj -457 -1920 openpanel;
#X obj -360 -1903 print;
#X msg -457 -1878 read -resize \$1 amen;
#X floatatom -349 -1837 7 0 0 0 - - -;
#X obj -457 -1729 phasor~;
#X obj -457 -1701 *~;
#X obj -266 -1685 snapshot~;
#X floatatom -266 -1656 8 0 0 0 - - -;
#X obj -458 -1493 dac~;
#X obj -266 -1629 /;
#X obj -194 -1646 r sampleSize;
#X floatatom -266 -1601 5 0 0 0 - - position_slider;
#X obj -349 -1816 s sampleSize;
#X obj -4 -1720 tgl 15 0 empty start_sequencer empty 17 7 0 10 -262144
-1 -1 1 1;
#X obj -266 -1705 metro 50;
#X obj -457 -1807 expr 44100 / $f1;
#X floatatom -346 -1790 7 0 0 0 - - -;
#X msg -4 -1694 \; pd dsp \$1;
#X obj -458 -1675 tabread~ amen;
#X obj -403 -1718 r sampleSize;
#X floatatom -595 -1768 8 0 0 0 - - -;
#X msg -595 -1812 1;
#X obj -610 -1746 *;
#X text -21 -1741 ON / OFF;
#X text -388 -1924 Carga el audio;
#X msg -524 -1746 0;
#X text -527 -1760 init;
#X text -644 -1729 num de la posicion;
#X obj -772 -1809 tgl 15 0 empty start_sequencer empty 17 7 0 10 -262144
-1 -1 1 1;
#X floatatom -772 -1762 5 0 0 0 - - -;
#X floatatom -677 -1994 5 0 0 0 - - -;
#X obj -677 -2030 r continuous_time;
#X text -234 -1621 dibuja la linea donde el break se esta reproduciendo
;
#X obj -749 -1809 bng 15 250 50 0 stop empty empty 17 7 0 10 -262144
-1 -1;
#X text -731 -1810 STOP;
#X obj -772 -1787 Break_Sequencer;
#X obj -595 -1790 / 32;
#X obj -457 -1944 bng 15 250 50 0 empty open_amen_file empty 17 7 0
10 -262144 -1 -1;
#X obj -595 -1937 loadbang;
#X text -657 -1855 divide el break en 32 partes;
#X obj -346 -1771 s velocity;
#X obj -391 -1746 getReverse;
#N canvas 478 121 501 261 filters 0;
#X obj -458 -1688 inlet~;
#X obj -456 -1521 outlet~;
#X obj -457 -1555 hip~;
#X obj -416 -1588 vsl 15 30 20 10000 0 0 empty highpass_filter empty
0 -9 0 10 -262144 -1 -1 1354 1;
#X obj -398 -1704 vsl 15 30 20 10000 0 0 empty lowpass_filter empty
0 -9 0 10 -262144 -1 -1 2900 1;
#X obj -305 -1635 loadbang;
#X msg -305 -1598 10000;
#X obj -305 -1577 s lowpass_filter;
#X obj -457 -1643 moog~;
#X obj -362 -1699 vsl 15 30 1 4 0 0 empty Q empty 0 -9 0 10 -262144
-1 -1 0 1;
#X msg -168 -1618 1;
#X obj -168 -1591 s Q;
#X text -229 -1650 INITIALIZE FILTERS;
#X msg -97 -1618 10000;
#X obj -97 -1591 s lowpass_filter;
#X connect 0 0 8 0;
#X connect 2 0 1 0;
#X connect 3 0 2 1;
#X connect 4 0 8 1;
#X connect 5 0 6 0;
#X connect 5 0 10 0;
#X connect 5 0 13 0;
#X connect 6 0 7 0;
#X connect 8 0 2 0;
#X connect 9 0 8 2;
#X connect 10 0 11 0;
#X connect 13 0 14 0;
#X restore -458 -1608 pd filters;
#N canvas 69 21 450 300 vumetro 0;
#X obj -615 -1416 hsl 128 15 0 2 0 0 empty empty empty -2 -8 0 10 -262144
-1 -1 9608 1;
#X floatatom -618 -1396 5 0 0 0 - - -;
#X msg -551 -1447 0;
#X msg -509 -1446 1;
#X obj -616 -1564 hsl 128 15 0 120 0 0 empty volumen empty -2 -8 0
10 -262144 -1 -1 10964 1;
#X floatatom -617 -1524 5 0 0 0 - - -;
#X obj -617 -1489 dbtorms;
#X text -477 -1564 control de volumen en dB;
#X text -480 -1543 (en Pd: rango 0 a 100);
#X text -531 -1499 (conversión a escala linear de 0 a 1);
#X text -475 -1448 (mute/unmute);
#X obj -618 -1356 outlet;
#X obj -455 -1400 loadbang;
#X msg -455 -1373 100;
#X obj -455 -1331 s volumeninit;
#X connect 0 0 1 0;
#X connect 1 0 11 0;
#X connect 2 0 0 0;
#X connect 3 0 0 0;
#X connect 4 0 5 0;
#X connect 5 0 6 0;
#X connect 6 0 0 0;
#X connect 12 0 13 0;
#X connect 13 0 11 0;
#X connect 13 0 14 0;
#X restore -391 -1577 pd vumetro;
#X obj -458 -1551 *~;
#X obj -539 -1535 pvu~;
#X floatatom -539 -1491 5 -100 100 0 - - db_out;
#X connect 0 0 4 0;
#X connect 0 0 16 0;
#X connect 1 0 3 0;
#X connect 1 0 2 0;
#X connect 3 0 0 0;
#X connect 4 0 13 0;
#X connect 5 0 6 0;
#X connect 6 0 7 0;
#X connect 6 0 19 0;
#X connect 7 0 8 0;
#X connect 8 0 10 0;
#X connect 10 0 12 0;
#X connect 11 0 10 1;
#X connect 14 0 18 0;
#X connect 14 0 15 0;
#X connect 15 0 7 0;
#X connect 16 0 5 0;
#X connect 16 0 17 0;
#X connect 17 0 41 0;
#X connect 19 0 43 0;
#X connect 20 0 6 1;
#X connect 21 0 23 1;
#X connect 22 0 37 0;
#X connect 23 0 5 1;
#X connect 26 0 5 1;
#X connect 29 0 36 0;
#X connect 30 0 23 0;
#X connect 32 0 31 0;
#X connect 36 0 30 0;
#X connect 37 0 21 0;
#X connect 38 0 1 0;
#X connect 39 0 1 0;
#X connect 39 0 22 0;
#X connect 42 0 5 0;
#X connect 42 1 5 0;
#X connect 43 0 45 0;
#X connect 44 0 45 1;
#X connect 45 0 9 0;
#X connect 45 0 9 1;
#X connect 45 0 46 0;
#X connect 46 0 47 0;
